<?xml version="1.0" encoding="UTF-8" standalone="no"?><!-- Generator: Gravit.io --><svg xmlns="http://www.w3.org/2000/svg" xmlns:xlink="http://www.w3.org/1999/xlink" style="isolation:isolate" viewBox="0 0 1152 1152" width="1152pt" height="1152pt"><defs><clipPath id="_clipPath_IZiMcX5fc3kokgvpUUBz4qceTo2hdbyD"><rect width="1152" height="1152"/></clipPath></defs><g clip-path="url(#_clipPath_IZiMcX5fc3kokgvpUUBz4qceTo2hdbyD)"><clipPath id="_clipPath_NtFEwllnANa8Y5LcffynjGPBedzmbYiw"><rect x="0" y="0" width="1152" height="1152" transform="matrix(1,0,0,1,0,0)" fill="rgb(255,255,255)"/></clipPath><g clip-path="url(#_clipPath_NtFEwllnANa8Y5LcffynjGPBedzmbYiw)"><g><path d=" M 983.135 983.135 C 878.951 1087.477 734.951 1152 576 1152 C 416.477 1152 272.014 1087.011 167.74 982.01 L 574.875 574.875 L 983.135 983.135 L 983.135 983.135 Z " fill="rgb(74,185,232)"/><path d=" M 983.135 983.135 C 1087.477 878.951 1152 734.951 1152 576 C 1152 416.477 1087.011 272.014 982.01 167.74 L 982.01 167.74 L 574.875 574.875 L 983.135 983.135 L 983.135 983.135 Z " fill="rgb(151,210,83)"/><path d=" M 574.875 574.875 L 167.74 982.01 C 64.062 877.916 0 734.38 0 576 C 0 417.049 64.523 273.049 168.865 168.865 L 574.875 574.875 L 574.875 574.875 Z " fill="rgb(255,157,0)"/><path d=" M 574.875 574.875 L 982.01 167.74 L 982.01 167.74 C 877.916 64.062 734.38 0 576 0 C 417.049 0 273.049 64.523 168.865 168.865 L 574.875 574.875 L 574.875 574.875 Z " fill="rgb(242,251,82)"/><path d=" M 982.924 982.539 L 575.89 695.835 L 168.336 981.799 L 455.04 574.765 L 169.076 167.211 L 576.11 453.915 L 983.664 167.951 L 696.96 574.985 L 982.924 982.539 Z " fill="rgb(255,255,255)"/></g></g></g></svg>