<?xml version="1.0" encoding="UTF-8" standalone="no"?><!-- Generator: Gravit.io --><svg xmlns="http://www.w3.org/2000/svg" xmlns:xlink="http://www.w3.org/1999/xlink" style="isolation:isolate" viewBox="0 0 512 512" width="512pt" height="512pt"><defs><clipPath id="_clipPath_pUKhE3tn6IMv3s7QkEKCbVeWLUlBo7tM"><rect width="512" height="512"/></clipPath></defs><g clip-path="url(#_clipPath_pUKhE3tn6IMv3s7QkEKCbVeWLUlBo7tM)"><path d=" M 436.949 436.949 C 390.645 483.323 326.645 512 256 512 C 185.101 512 120.895 483.116 74.551 436.449 L 255.5 255.5 L 436.949 436.949 L 436.949 436.949 Z " fill="rgb(74,185,232)"/><path d=" M 436.949 436.949 C 483.323 390.645 512 326.645 512 256 C 512 185.101 483.116 120.895 436.449 74.551 L 436.449 74.551 L 255.5 255.5 L 436.949 436.949 L 436.949 436.949 Z " fill="rgb(151,210,83)"/><path d=" M 255.5 255.5 L 74.551 436.449 C 28.472 390.185 0 326.391 0 256 C 0 185.355 28.677 121.355 75.051 75.051 L 255.5 255.5 L 255.5 255.5 Z " fill="rgb(255,157,0)"/><path d=" M 255.5 255.5 L 436.449 74.551 L 436.449 74.551 C 390.185 28.472 326.391 0 256 0 C 185.355 0 121.355 28.677 75.051 75.051 L 255.5 255.5 L 255.5 255.5 Z " fill="rgb(242,251,82)"/><path d=" M 436.855 436.684 L 255.951 309.26 L 74.816 436.355 L 202.24 255.451 L 75.145 74.316 L 256.049 201.74 L 437.184 74.645 L 309.76 255.549 L 436.855 436.684 Z " fill="rgb(255,255,255)"/></g></svg>