<svg height="512pt" viewBox="0 0 512 512" width="512pt" xmlns="http://www.w3.org/2000/svg" xmlns:xlink="http://www.w3.org/1999/xlink"><clipPath id="a"><path d="m0 0h512v512h-512z"/></clipPath><g clip-path="url(#a)"><path d="m436.949 436.949c-46.304 46.374-110.304 75.051-180.949 75.051-70.899 0-135.105-28.884-181.449-75.551l180.949-180.949z" fill="#4a86e8"/><path d="m436.949 436.949c46.374-46.304 75.051-110.304 75.051-180.949 0-70.899-28.884-135.105-75.551-181.449l-180.949 180.949z" fill="#53d253"/><path d="m255.5 255.5-180.949 180.949c-46.079-46.264-74.551-110.058-74.551-180.449 0-70.645 28.677-134.645 75.051-180.949z" fill="#f90"/><path d="m255.5 255.5 180.949-180.949c-46.264-46.079-110.058-74.551-180.449-74.551-70.645 0-134.645 28.677-180.949 75.051z" fill="#eaea44"/><path d="m373.411 411.581c-35.081-14.066-75.641 2.723-90.519 37.467-14.878 34.744-39.022 34.738-53.882-.014-14.86-34.751-55.412-51.561-90.5-37.513-35.088 14.048-52.156-3.029-38.091-38.11 14.066-35.081-2.723-75.641-37.467-90.519-34.744-14.878-34.738-39.022.014-53.882 34.751-14.86 51.561-55.412 37.513-90.5-14.048-35.088 3.029-52.156 38.11-38.091 35.081 14.066 75.641-2.723 90.519-37.467 14.878-34.744 39.022-34.738 53.882.014 14.86 34.751 55.412 51.561 90.5 37.513 35.088-14.048 52.156 3.029 38.091 38.11-14.066 35.081 2.723 75.641 37.467 90.519 34.744 14.878 34.738 39.022-.014 53.882-34.751 14.86-51.561 55.412-37.513 90.5 14.048 35.088-3.029 52.156-38.11 38.091z" fill="#fff"/><circle cx="256" cy="256" fill="#fb7373" r="75"/></g></svg>